<svg width="204" height="46" viewBox="0 0 204 46" fill="none" xmlns="http://www.w3.org/2000/svg">
<path d="M23.3069 25.5052C23.9489 24.3554 24.3658 23.0922 24.8072 21.7547C25.2655 20.3654 25.7395 18.929 26.493 17.6063C27.4987 15.866 28.9299 14.423 30.646 13.419V2.49785C30.646 1.83538 30.3885 1.20004 29.9303 0.7316C29.472 0.263161 28.8505 0 28.2024 0H18.4277C17.7796 0 17.1581 0.263161 16.6999 0.7316C16.2416 1.20004 15.9842 1.83538 15.9842 2.49785V15.5062H3.25862C2.61048 15.5062 1.98889 15.7694 1.53059 16.2379C1.07229 16.7063 0.814819 17.3418 0.814819 18.0043V27.9957C0.814819 28.6582 1.07229 29.2936 1.53059 29.7621C1.98889 30.2306 2.61048 30.4938 3.25862 30.4938H15.8858C17.4146 30.301 18.8793 29.7506 20.1663 28.8855C21.4533 28.0203 22.528 26.8636 23.3069 25.5052Z" fill="url(#paint0_linear)"/>
<path d="M43.3713 15.5062H30.6708C29.583 16.301 28.6705 17.3202 27.9921 18.498C27.3273 19.6655 26.9023 20.9556 26.451 22.3214C26.0026 23.6801 25.5392 25.0851 24.8137 26.384C23.889 27.9971 22.61 29.3683 21.0778 30.3893C19.5456 31.4102 17.8022 32.053 15.9852 32.2667V43.5024C15.9852 43.8304 16.0484 44.1552 16.1712 44.4583C16.294 44.7613 16.474 45.0367 16.7009 45.2686C16.9278 45.5006 17.1971 45.6846 17.4936 45.8101C17.7901 45.9356 18.1078 46.0002 18.4287 46.0002H28.2032C28.5241 46.0002 28.8418 45.9356 29.1383 45.8101C29.4347 45.6846 29.7041 45.5006 29.931 45.2686C30.1579 45.0367 30.3379 44.7613 30.4607 44.4583C30.5835 44.1552 30.6467 43.8304 30.6467 43.5024V30.4938H43.3723C44.0204 30.4938 44.642 30.2306 45.1003 29.7621C45.5586 29.2936 45.8161 28.6582 45.8161 27.9957V18.0043C45.8161 17.6761 45.7528 17.3512 45.63 17.048C45.5071 16.7449 45.327 16.4695 45.0999 16.2375C44.8729 16.0055 44.6034 15.8215 44.3068 15.696C44.0102 15.5705 43.6923 15.506 43.3713 15.5062Z" fill="url(#paint1_linear)"/>
<path opacity="0.25" d="M30.586 1.95397C30.4651 1.39981 30.1631 0.904305 29.7297 0.549115C29.2964 0.193925 28.7576 0.000247978 28.2022 0H18.4277C17.7796 0 17.1581 0.263161 16.6999 0.7316C16.2416 1.20004 15.9842 1.83538 15.9842 2.49785V15.5062H3.25862C2.61048 15.5062 1.98889 15.7694 1.53059 16.2379C1.07229 16.7063 0.814819 17.3418 0.814819 18.0043V27.9957C0.815324 28.2999 0.8704 28.6015 0.977311 28.8855C6.69768 28.9034 12.4014 26.1559 15.9349 21.54C17.4612 19.5458 18.5924 17.273 19.7903 14.8666C21.0343 12.3672 22.3206 9.78277 24.105 7.4928C25.8858 5.22657 28.0886 3.34397 30.586 1.95397Z" fill="#DCD6F2"/>
<path d="M62.5508 20.1981C61.1468 20.1981 59.9408 19.9281 58.9328 19.3881C57.9248 18.8481 57.1508 18.0861 56.6108 17.1021C56.0828 16.1181 55.8188 14.9661 55.8188 13.6461C55.8188 12.3261 56.0828 11.1801 56.6108 10.2081C57.1508 9.22412 57.9248 8.46212 58.9328 7.92212C59.9408 7.38212 61.1468 7.11212 62.5508 7.11212C63.1028 7.11212 63.6728 7.17812 64.2608 7.31012C64.8608 7.43012 65.3888 7.61612 65.8448 7.86812C66.1808 8.04812 66.4148 8.27612 66.5468 8.55212C66.6788 8.82812 66.7268 9.11012 66.6908 9.39812C66.6548 9.68612 66.5468 9.94412 66.3668 10.1721C66.1988 10.4001 65.9828 10.5561 65.7188 10.6401C65.4548 10.7121 65.1668 10.6701 64.8548 10.5141C64.1468 10.1661 63.4208 9.99212 62.6768 9.99212C61.5608 9.99212 60.7208 10.3101 60.1568 10.9461C59.5928 11.5701 59.3108 12.4701 59.3108 13.6461C59.3108 14.8341 59.5928 15.7461 60.1568 16.3821C60.7208 17.0061 61.5608 17.3181 62.6768 17.3181C62.9888 17.3181 63.3248 17.2821 63.6848 17.2101C64.0448 17.1261 64.3988 17.0001 64.7468 16.8321C65.1068 16.6761 65.4248 16.6341 65.7008 16.7061C65.9888 16.7781 66.2228 16.9221 66.4028 17.1381C66.5828 17.3541 66.6908 17.6061 66.7268 17.8941C66.7748 18.1701 66.7388 18.4461 66.6188 18.7221C66.4988 18.9981 66.2768 19.2201 65.9528 19.3881C65.5328 19.6401 65.0108 19.8381 64.3868 19.9821C63.7748 20.1261 63.1628 20.1981 62.5508 20.1981Z" fill="#0076DA"/>
<path d="M74.2159 20.1981C72.9319 20.1981 71.8039 19.9281 70.8319 19.3881C69.8719 18.8361 69.1219 18.0681 68.5819 17.0841C68.0419 16.1001 67.7719 14.9541 67.7719 13.6461C67.7719 12.3261 68.0359 11.1801 68.5639 10.2081C69.1039 9.22412 69.8599 8.46212 70.8319 7.92212C71.8039 7.38212 72.9319 7.11212 74.2159 7.11212C75.4999 7.11212 76.6219 7.38212 77.5819 7.92212C78.5539 8.46212 79.3099 9.22412 79.8499 10.2081C80.3899 11.1801 80.6599 12.3261 80.6599 13.6461C80.6599 14.9541 80.3899 16.1001 79.8499 17.0841C79.3099 18.0681 78.5539 18.8361 77.5819 19.3881C76.6219 19.9281 75.4999 20.1981 74.2159 20.1981ZM74.2159 17.4261C75.1519 17.4261 75.8839 17.0961 76.4119 16.4361C76.9519 15.7641 77.2219 14.8341 77.2219 13.6461C77.2219 12.4581 76.9579 11.5341 76.4299 10.8741C75.9019 10.2141 75.1639 9.88412 74.2159 9.88412C73.2679 9.88412 72.5299 10.2141 72.0019 10.8741C71.4739 11.5341 71.2099 12.4581 71.2099 13.6461C71.2099 14.8341 71.4739 15.7641 72.0019 16.4361C72.5299 17.0961 73.2679 17.4261 74.2159 17.4261Z" fill="#0076DA"/>
<path d="M87.8255 20.1621C87.3695 20.1621 86.9975 20.0661 86.7095 19.8741C86.4335 19.6821 86.1995 19.3761 86.0075 18.9561L81.6515 9.34412C81.4595 8.92412 81.3995 8.54612 81.4715 8.21012C81.5435 7.87412 81.7115 7.61612 81.9755 7.43612C82.2395 7.24412 82.5695 7.14812 82.9655 7.14812C83.4455 7.14812 83.8115 7.25612 84.0635 7.47212C84.3155 7.68812 84.5315 8.00612 84.7115 8.42612L87.8795 15.7701L91.0475 8.40812C91.2275 7.98812 91.4435 7.67612 91.6955 7.47212C91.9475 7.25612 92.3015 7.14812 92.7575 7.14812C93.1295 7.14812 93.4415 7.24412 93.6935 7.43612C93.9455 7.62812 94.1015 7.89212 94.1615 8.22812C94.2335 8.55212 94.1735 8.92412 93.9815 9.34412L89.6075 18.9561C89.4275 19.3761 89.1935 19.6821 88.9055 19.8741C88.6295 20.0661 88.2695 20.1621 87.8255 20.1621Z" fill="#0076DA"/>
<path d="M97.2969 20.1621C96.7689 20.1621 96.3609 20.0181 96.0729 19.7301C95.7849 19.4421 95.6409 19.0221 95.6409 18.4701V8.84012C95.6409 8.28812 95.7849 7.86812 96.0729 7.58012C96.3609 7.29212 96.7689 7.14812 97.2969 7.14812C97.8249 7.14812 98.2329 7.29212 98.5209 7.58012C98.8089 7.86812 98.9529 8.28812 98.9529 8.84012V18.4701C98.9529 19.0221 98.8089 19.4421 98.5209 19.7301C98.2449 20.0181 97.8369 20.1621 97.2969 20.1621Z" fill="#0076DA"/>
<path d="M102.976 20.0001C101.824 20.0001 101.248 19.4301 101.248 18.2901V9.02012C101.248 7.88012 101.824 7.31012 102.976 7.31012H106.504C108.7 7.31012 110.404 7.86212 111.616 8.96612C112.828 10.0701 113.434 11.6301 113.434 13.6461C113.434 15.6621 112.828 17.2281 111.616 18.3441C110.404 19.4481 108.7 20.0001 106.504 20.0001H102.976ZM104.56 17.3181H106.288C107.548 17.3181 108.478 17.0181 109.078 16.4181C109.69 15.8061 109.996 14.8821 109.996 13.6461C109.996 12.4101 109.69 11.4921 109.078 10.8921C108.466 10.2921 107.536 9.99212 106.288 9.99212H104.56V17.3181Z" fill="#0076DA"/>
<path d="M122.223 20.1621C121.695 20.1621 121.281 20.0181 120.981 19.7301C120.693 19.4301 120.549 19.0041 120.549 18.4521V9.02012C120.549 7.88012 121.125 7.31012 122.277 7.31012H128.271C129.135 7.31012 129.567 7.73012 129.567 8.57012C129.567 9.43412 129.135 9.86612 128.271 9.86612H123.861V12.4221H127.875C128.739 12.4221 129.171 12.8421 129.171 13.6821C129.171 14.5341 128.739 14.9601 127.875 14.9601H123.861V18.4521C123.861 19.5921 123.315 20.1621 122.223 20.1621Z" fill="#0076DA"/>
<path d="M135.221 20.1981C133.649 20.1981 132.449 19.6281 131.621 18.4881C130.793 17.3361 130.379 15.7101 130.379 13.6101C130.379 11.4981 130.793 9.89012 131.621 8.78612C132.449 7.67012 133.649 7.11212 135.221 7.11212C136.793 7.11212 137.993 7.67012 138.821 8.78612C139.649 9.89012 140.063 11.4921 140.063 13.5921C140.063 15.7041 139.649 17.3361 138.821 18.4881C137.993 19.6281 136.793 20.1981 135.221 20.1981ZM135.221 17.5701C135.797 17.5701 136.223 17.2581 136.499 16.6341C136.787 15.9981 136.931 14.9841 136.931 13.5921C136.931 12.2121 136.787 11.2281 136.499 10.6401C136.223 10.0401 135.797 9.74012 135.221 9.74012C134.645 9.74012 134.213 10.0401 133.925 10.6401C133.649 11.2281 133.511 12.2121 133.511 13.5921C133.511 14.9841 133.649 15.9981 133.925 16.6341C134.213 17.2581 134.645 17.5701 135.221 17.5701Z" fill="#0076DA"/>
<path d="M57.7988 41.1621C57.2708 41.1621 56.8628 41.0181 56.5748 40.7301C56.2868 40.4421 56.1428 40.0221 56.1428 39.4701V29.8401C56.1428 29.2881 56.2868 28.8681 56.5748 28.5801C56.8628 28.2921 57.2708 28.1481 57.7988 28.1481C58.3268 28.1481 58.7348 28.2921 59.0228 28.5801C59.3108 28.8681 59.4548 29.2881 59.4548 29.8401V33.2061H64.6928V29.8401C64.6928 29.2881 64.8368 28.8681 65.1248 28.5801C65.4128 28.2921 65.8208 28.1481 66.3488 28.1481C66.8768 28.1481 67.2788 28.2921 67.5548 28.5801C67.8428 28.8681 67.9868 29.2881 67.9868 29.8401V39.4701C67.9868 40.0221 67.8428 40.4421 67.5548 40.7301C67.2788 41.0181 66.8768 41.1621 66.3488 41.1621C65.8088 41.1621 65.3948 41.0181 65.1068 40.7301C64.8308 40.4421 64.6928 40.0221 64.6928 39.4701V35.9241H59.4548V39.4701C59.4548 40.0221 59.3108 40.4421 59.0228 40.7301C58.7468 41.0181 58.3388 41.1621 57.7988 41.1621Z" fill="#0076DA"/>
<path d="M76.4132 41.1981C75.1292 41.1981 74.0012 40.9281 73.0292 40.3881C72.0692 39.8361 71.3192 39.0681 70.7792 38.0841C70.2392 37.1001 69.9692 35.9541 69.9692 34.6461C69.9692 33.3261 70.2332 32.1801 70.7612 31.2081C71.3012 30.2241 72.0572 29.4621 73.0292 28.9221C74.0012 28.3821 75.1292 28.1121 76.4132 28.1121C77.6972 28.1121 78.8192 28.3821 79.7792 28.9221C80.7512 29.4621 81.5072 30.2241 82.0472 31.2081C82.5872 32.1801 82.8572 33.3261 82.8572 34.6461C82.8572 35.9541 82.5872 37.1001 82.0472 38.0841C81.5072 39.0681 80.7512 39.8361 79.7792 40.3881C78.8192 40.9281 77.6972 41.1981 76.4132 41.1981ZM76.4132 38.4261C77.3492 38.4261 78.0812 38.0961 78.6092 37.4361C79.1492 36.7641 79.4192 35.8341 79.4192 34.6461C79.4192 33.4581 79.1552 32.5341 78.6272 31.8741C78.0992 31.2141 77.3612 30.8841 76.4132 30.8841C75.4652 30.8841 74.7272 31.2141 74.1992 31.8741C73.6712 32.5341 73.4072 33.4581 73.4072 34.6461C73.4072 35.8341 73.6712 36.7641 74.1992 37.4361C74.7272 38.0961 75.4652 38.4261 76.4132 38.4261Z" fill="#0076DA"/>
<path d="M86.3427 41.1621C85.8627 41.1621 85.4907 41.0301 85.2267 40.7661C84.9747 40.5021 84.8487 40.1301 84.8487 39.6501V29.6601C84.8487 29.1681 84.9867 28.7961 85.2627 28.5441C85.5387 28.2801 85.9287 28.1481 86.4327 28.1481C86.8407 28.1481 87.1707 28.2321 87.4227 28.4001C87.6747 28.5561 87.9027 28.8201 88.1067 29.1921L91.6527 35.5821L95.1987 29.1921C95.4147 28.8201 95.6427 28.5561 95.8827 28.4001C96.1347 28.2321 96.4707 28.1481 96.8907 28.1481C97.3587 28.1481 97.7247 28.2801 97.9887 28.5441C98.2527 28.7961 98.3847 29.1681 98.3847 29.6601V39.6501C98.3847 40.1301 98.2587 40.5021 98.0067 40.7661C97.7547 41.0301 97.3827 41.1621 96.8907 41.1621C96.4107 41.1621 96.0387 41.0301 95.7747 40.7661C95.5227 40.5021 95.3967 40.1301 95.3967 39.6501V34.1061L92.8767 38.4981C92.7087 38.7621 92.5287 38.9601 92.3367 39.0921C92.1567 39.2241 91.9107 39.2901 91.5987 39.2901C91.2987 39.2901 91.0527 39.2241 90.8607 39.0921C90.6687 38.9601 90.4947 38.7621 90.3387 38.4981L87.8367 34.1781V39.6501C87.8367 40.1301 87.7107 40.5021 87.4587 40.7661C87.2067 41.0301 86.8347 41.1621 86.3427 41.1621Z" fill="#0076DA"/>
<path d="M102.449 41.0001C101.297 41.0001 100.721 40.4301 100.721 39.2901V30.0201C100.721 28.8801 101.297 28.3101 102.449 28.3101H108.551C109.415 28.3101 109.847 28.7301 109.847 29.5701C109.847 30.4341 109.415 30.8661 108.551 30.8661H103.889V33.2781H108.155C109.019 33.2781 109.451 33.7041 109.451 34.5561C109.451 35.4081 109.019 35.8341 108.155 35.8341H103.889V38.4441H108.551C109.415 38.4441 109.847 38.8701 109.847 39.7221C109.847 40.5741 109.415 41.0001 108.551 41.0001H102.449Z" fill="#0076DA"/>
<path d="M121.644 41.1981C120.912 41.1981 120.156 41.1261 119.376 40.9821C118.608 40.8261 117.948 40.6101 117.396 40.3341C117.072 40.1781 116.844 39.9681 116.712 39.7041C116.58 39.4401 116.532 39.1701 116.568 38.8941C116.604 38.6061 116.706 38.3541 116.874 38.1381C117.042 37.9101 117.264 37.7601 117.54 37.6881C117.816 37.6041 118.128 37.6401 118.476 37.7961C118.932 38.0241 119.448 38.1981 120.024 38.3181C120.6 38.4261 121.14 38.4801 121.644 38.4801C122.436 38.4801 122.988 38.3781 123.3 38.1741C123.624 37.9581 123.786 37.6941 123.786 37.3821C123.786 37.1061 123.672 36.8841 123.444 36.7161C123.228 36.5481 122.838 36.4041 122.274 36.2841L120.168 35.8341C117.888 35.3421 116.748 34.1481 116.748 32.2521C116.748 31.4241 116.97 30.6981 117.414 30.0741C117.87 29.4501 118.5 28.9701 119.304 28.6341C120.108 28.2861 121.044 28.1121 122.112 28.1121C122.736 28.1121 123.366 28.1841 124.002 28.3281C124.65 28.4601 125.208 28.6641 125.676 28.9401C126.036 29.1321 126.264 29.3961 126.36 29.7321C126.456 30.0561 126.444 30.3741 126.324 30.6861C126.204 30.9981 125.988 31.2261 125.676 31.3701C125.376 31.5141 124.992 31.4901 124.524 31.2981C124.164 31.1421 123.768 31.0281 123.336 30.9561C122.904 30.8721 122.484 30.8301 122.076 30.8301C121.404 30.8301 120.888 30.9501 120.528 31.1901C120.168 31.4181 119.988 31.7181 119.988 32.0901C119.988 32.3541 120.096 32.5701 120.312 32.7381C120.528 32.9061 120.912 33.0501 121.464 33.1701L123.552 33.6201C125.868 34.1121 127.026 35.2761 127.026 37.1121C127.026 37.9401 126.804 38.6601 126.36 39.2721C125.916 39.8841 125.292 40.3581 124.488 40.6941C123.684 41.0301 122.736 41.1981 121.644 41.1981Z" fill="#0076DA"/>
<path d="M134.269 41.1981C132.421 41.1981 131.005 40.7301 130.021 39.7941C129.049 38.8581 128.563 37.4601 128.563 35.6001V29.8221C128.563 29.2821 128.707 28.8681 128.995 28.5801C129.283 28.2921 129.691 28.1481 130.219 28.1481C130.747 28.1481 131.155 28.2921 131.443 28.5801C131.731 28.8681 131.875 29.2821 131.875 29.8221V35.6361C131.875 36.5601 132.079 37.2561 132.487 37.7241C132.895 38.1921 133.489 38.4261 134.269 38.4261C135.037 38.4261 135.625 38.1921 136.033 37.7241C136.441 37.2561 136.645 36.5601 136.645 35.6361V29.8221C136.645 29.2821 136.783 28.8681 137.059 28.5801C137.347 28.2921 137.755 28.1481 138.283 28.1481C138.811 28.1481 139.213 28.2921 139.489 28.5801C139.765 28.8681 139.903 29.2821 139.903 29.8221V35.6001C139.903 37.4601 139.423 38.8581 138.463 39.7941C137.515 40.7301 136.117 41.1981 134.269 41.1981Z" fill="#0076DA"/>
<path d="M143.773 41.1621C143.245 41.1621 142.837 41.0181 142.549 40.7301C142.261 40.4421 142.117 40.0281 142.117 39.4881V29.9841C142.117 29.4441 142.261 29.0301 142.549 28.7421C142.837 28.4541 143.251 28.3101 143.791 28.3101H148.219C149.659 28.3101 150.769 28.6821 151.549 29.4261C152.341 30.1581 152.737 31.1721 152.737 32.4681C152.737 33.7641 152.341 34.7841 151.549 35.5281C150.769 36.2601 149.659 36.6261 148.219 36.6261H145.429V39.4881C145.429 40.0281 145.285 40.4421 144.997 40.7301C144.721 41.0181 144.313 41.1621 143.773 41.1621ZM145.429 34.0881H147.643C148.939 34.0881 149.587 33.5481 149.587 32.4681C149.587 31.3881 148.939 30.8481 147.643 30.8481H145.429V34.0881Z" fill="#0076DA"/>
<path d="M155.937 41.1621C155.409 41.1621 155.001 41.0181 154.713 40.7301C154.425 40.4421 154.281 40.0281 154.281 39.4881V29.9841C154.281 29.4441 154.425 29.0301 154.713 28.7421C155.001 28.4541 155.415 28.3101 155.955 28.3101H160.383C161.823 28.3101 162.933 28.6821 163.713 29.4261C164.505 30.1581 164.901 31.1721 164.901 32.4681C164.901 33.7641 164.505 34.7841 163.713 35.5281C162.933 36.2601 161.823 36.6261 160.383 36.6261H157.593V39.4881C157.593 40.0281 157.449 40.4421 157.161 40.7301C156.885 41.0181 156.477 41.1621 155.937 41.1621ZM157.593 34.0881H159.807C161.103 34.0881 161.751 33.5481 161.751 32.4681C161.751 31.3881 161.103 30.8481 159.807 30.8481H157.593V34.0881Z" fill="#0076DA"/>
<path d="M172.53 41.1981C171.246 41.1981 170.118 40.9281 169.146 40.3881C168.186 39.8361 167.436 39.0681 166.896 38.0841C166.356 37.1001 166.086 35.9541 166.086 34.6461C166.086 33.3261 166.35 32.1801 166.878 31.2081C167.418 30.2241 168.174 29.4621 169.146 28.9221C170.118 28.3821 171.246 28.1121 172.53 28.1121C173.814 28.1121 174.936 28.3821 175.896 28.9221C176.868 29.4621 177.624 30.2241 178.164 31.2081C178.704 32.1801 178.974 33.3261 178.974 34.6461C178.974 35.9541 178.704 37.1001 178.164 38.0841C177.624 39.0681 176.868 39.8361 175.896 40.3881C174.936 40.9281 173.814 41.1981 172.53 41.1981ZM172.53 38.4261C173.466 38.4261 174.198 38.0961 174.726 37.4361C175.266 36.7641 175.536 35.8341 175.536 34.6461C175.536 33.4581 175.272 32.5341 174.744 31.8741C174.216 31.2141 173.478 30.8841 172.53 30.8841C171.582 30.8841 170.844 31.2141 170.316 31.8741C169.788 32.5341 169.524 33.4581 169.524 34.6461C169.524 35.8341 169.788 36.7641 170.316 37.4361C170.844 38.0961 171.582 38.4261 172.53 38.4261Z" fill="#0076DA"/>
<path d="M182.586 41.1621C182.058 41.1621 181.65 41.0181 181.362 40.7301C181.074 40.4421 180.93 40.0281 180.93 39.4881V29.9841C180.93 29.4441 181.074 29.0301 181.362 28.7421C181.65 28.4541 182.064 28.3101 182.604 28.3101H187.032C188.472 28.3101 189.582 28.6641 190.362 29.3721C191.154 30.0681 191.55 31.0401 191.55 32.2881C191.55 33.2361 191.31 34.0341 190.83 34.6821C190.362 35.3181 189.678 35.7621 188.778 36.0141C189.45 36.1941 189.99 36.6561 190.398 37.4001L191.298 39.0201C191.49 39.3801 191.574 39.7221 191.55 40.0461C191.538 40.3701 191.412 40.6401 191.172 40.8561C190.932 41.0601 190.578 41.1621 190.11 41.1621C189.642 41.1621 189.258 41.0721 188.958 40.8921C188.67 40.7001 188.412 40.3941 188.184 39.9741L186.546 36.9681C186.402 36.7041 186.216 36.5241 185.988 36.4281C185.772 36.3201 185.52 36.2661 185.232 36.2661H184.242V39.4881C184.242 40.0281 184.098 40.4421 183.81 40.7301C183.534 41.0181 183.126 41.1621 182.586 41.1621ZM184.242 33.9261H186.438C187.746 33.9261 188.4 33.4101 188.4 32.3781C188.4 31.3581 187.746 30.8481 186.438 30.8481H184.242V33.9261Z" fill="#0076DA"/>
<path d="M197.931 41.1621C197.403 41.1621 196.995 41.0181 196.707 40.7301C196.419 40.4421 196.275 40.0281 196.275 39.4881V31.0101H193.449C192.537 31.0101 192.081 30.5601 192.081 29.6601C192.081 28.7601 192.537 28.3101 193.449 28.3101H202.413C203.325 28.3101 203.781 28.7601 203.781 29.6601C203.781 30.5601 203.325 31.0101 202.413 31.0101H199.587V39.4881C199.587 40.0281 199.443 40.4421 199.155 40.7301C198.879 41.0181 198.471 41.1621 197.931 41.1621Z" fill="#0076DA"/>
<defs>
<linearGradient id="paint0_linear" x1="0.958485" y1="0.146605" x2="30.6394" y2="29.1826" gradientUnits="userSpaceOnUse">
<stop stop-color="#0092FF"/>
<stop offset="0.814" stop-color="#0070D3"/>
</linearGradient>
<linearGradient id="paint1_linear" x1="25.1092" y1="24.8342" x2="45.3641" y2="44.6488" gradientUnits="userSpaceOnUse">
<stop stop-color="#1489E1"/>
<stop offset="0.656" stop-color="#6FA9DD"/>
</linearGradient>
</defs>
</svg>
