<svg width="23" height="24" viewBox="0 0 23 24" fill="none" xmlns="http://www.w3.org/2000/svg">
<path d="M11.6043 0.913025C17.8832 0.913025 22.6367 6.0611 22.6367 11.9509C22.6367 18.7818 17.0652 23.0221 11.5822 23.0221C9.76923 23.0221 7.7573 22.5349 6.14334 21.5828C5.57956 21.2396 5.10422 20.985 4.49622 21.1843L2.26321 21.8485C1.69943 22.0257 1.19092 21.5828 1.35674 20.985L2.09739 18.505C2.21899 18.1618 2.19688 17.7965 2.02001 17.5086C1.06932 15.7594 0.527649 13.8441 0.527649 11.9842C0.527649 6.16074 5.1816 0.913025 11.6043 0.913025ZM16.6562 10.5781C15.8713 10.5781 15.2412 11.2092 15.2412 11.9952C15.2412 12.7702 15.8713 13.4123 16.6562 13.4123C17.4411 13.4123 18.0712 12.7702 18.0712 11.9952C18.0712 11.2092 17.4411 10.5781 16.6562 10.5781ZM11.5601 10.5781C10.7862 10.567 10.1451 11.2092 10.1451 11.9842C10.1451 12.7702 10.7752 13.4013 11.5601 13.4123C12.3449 13.4123 12.975 12.7702 12.975 11.9952C12.975 11.2092 12.3449 10.5781 11.5601 10.5781ZM6.46393 10.5781C5.67905 10.5781 5.04895 11.2092 5.04895 11.9952C5.04895 12.7702 5.69011 13.4123 6.46393 13.4123C7.2488 13.4013 7.8789 12.7702 7.8789 11.9952C7.8789 11.2092 7.2488 10.5781 6.46393 10.5781Z" fill="white"/>
</svg>
