<svg width="25" height="25" viewBox="0 0 25 25" fill="none" xmlns="http://www.w3.org/2000/svg">
<path fill-rule="evenodd" clip-rule="evenodd" d="M2.5426 0.355042C1.43803 0.355042 0.542603 1.25047 0.542603 2.35504V9.04462C0.542603 10.1492 1.43803 11.0446 2.5426 11.0446H9.23218C10.3368 11.0446 11.2322 10.1492 11.2322 9.04462V2.35504C11.2322 1.25047 10.3368 0.355042 9.23218 0.355042H2.5426ZM19.1979 0.355042C16.2461 0.355042 13.8531 2.74799 13.8531 5.69983C13.8531 8.65168 16.2461 11.0446 19.1979 11.0446C22.1497 11.0446 24.5427 8.65168 24.5427 5.69983C24.5427 2.74799 22.1497 0.355042 19.1979 0.355042ZM13.8531 15.6655C13.8531 14.5609 14.7485 13.6655 15.8531 13.6655H22.5427C23.6473 13.6655 24.5427 14.5609 24.5427 15.6655V22.3551C24.5427 23.4596 23.6473 24.3551 22.5427 24.3551H15.8531C14.7485 24.3551 13.8531 23.4596 13.8531 22.3551V15.6655ZM2.5426 13.6655C1.43803 13.6655 0.542603 14.5609 0.542603 15.6655V22.3551C0.542603 23.4596 1.43803 24.3551 2.5426 24.3551H9.23218C10.3368 24.3551 11.2322 23.4596 11.2322 22.3551V15.6655C11.2322 14.5609 10.3368 13.6655 9.23218 13.6655H2.5426Z" fill="url(#paint0_linear)"/>
<defs>
<linearGradient id="paint0_linear" x1="24.5428" y1="24.355" x2="-3.25789" y2="18.5473" gradientUnits="userSpaceOnUse">
<stop stop-color="#00A473"/>
<stop offset="1" stop-color="#24E97E"/>
</linearGradient>
</defs>
</svg>
