<svg width="24" height="24" viewBox="0 0 24 24" fill="none" xmlns="http://www.w3.org/2000/svg">
<path fill-rule="evenodd" clip-rule="evenodd" d="M8.49966 0.423401C7.39509 0.423401 6.49966 1.31883 6.49966 2.4234V6.9176H2.00543C0.900863 6.9176 0.00543213 7.81303 0.00543213 8.9176V15.0825C0.00543213 16.1871 0.900865 17.0825 2.00543 17.0825H6.49966V21.5768C6.49966 22.6814 7.3951 23.5768 8.49966 23.5768H14.6646C15.7692 23.5768 16.6646 22.6814 16.6646 21.5768V17.0825H21.1588C22.2634 17.0825 23.1588 16.1871 23.1588 15.0825V8.9176C23.1588 7.81303 22.2634 6.9176 21.1588 6.9176H16.6646V2.4234C16.6646 1.31883 15.7692 0.423401 14.6646 0.423401H8.49966Z" fill="white"/>
</svg>
