<svg width="23" height="24" viewBox="0 0 23 24" fill="none" xmlns="http://www.w3.org/2000/svg">
<path d="M11.3096 0.913025C17.5886 0.913025 22.342 6.0611 22.342 11.9509C22.342 18.7818 16.7705 23.0221 11.2875 23.0221C9.47455 23.0221 7.46263 22.5349 5.84867 21.5828C5.28489 21.2396 4.80954 20.985 4.20154 21.1843L1.96853 21.8485C1.40475 22.0257 0.896242 21.5828 1.06206 20.985L1.80271 18.505C1.92431 18.1618 1.9022 17.7965 1.72533 17.5086C0.774643 15.7594 0.232971 13.8441 0.232971 11.9842C0.232971 6.16074 4.88692 0.913025 11.3096 0.913025ZM16.3615 10.5781C15.5766 10.5781 14.9465 11.2092 14.9465 11.9952C14.9465 12.7702 15.5766 13.4123 16.3615 13.4123C17.1464 13.4123 17.7765 12.7702 17.7765 11.9952C17.7765 11.2092 17.1464 10.5781 16.3615 10.5781ZM11.2654 10.5781C10.4916 10.567 9.8504 11.2092 9.8504 11.9842C9.8504 12.7702 10.4805 13.4013 11.2654 13.4123C12.0503 13.4123 12.6804 12.7702 12.6804 11.9952C12.6804 11.2092 12.0503 10.5781 11.2654 10.5781ZM6.16925 10.5781C5.38438 10.5781 4.75427 11.2092 4.75427 11.9952C4.75427 12.7702 5.39543 13.4123 6.16925 13.4123C6.95412 13.4013 7.58423 12.7702 7.58423 11.9952C7.58423 11.2092 6.95412 10.5781 6.16925 10.5781Z" fill="#002341"/>
</svg>
