<svg width="25" height="28" viewBox="0 0 25 28" fill="none" xmlns="http://www.w3.org/2000/svg">
<path fill-rule="evenodd" clip-rule="evenodd" d="M21.5535 12.3832C20.846 12.3828 20.1583 12.6186 19.5985 13.0536C19.0387 13.4887 18.6385 14.0983 18.4606 14.7869C18.2827 15.4754 18.3373 16.2038 18.6158 16.8578C18.8943 17.5118 19.3808 18.0543 19.9991 18.4001V19.4442C19.9991 20.7798 19.4714 22.0607 18.5321 23.0052C17.5928 23.9496 16.3188 24.4802 14.9904 24.4802C13.6619 24.4802 12.3879 23.9496 11.4486 23.0052C10.5093 22.0607 9.98157 20.7798 9.98157 19.4442V15.3456C11.6813 14.985 13.2064 14.0484 14.3014 12.6924C15.3965 11.3365 15.9951 9.64354 15.9972 7.89689V4.04755C15.9967 3.34174 15.7177 2.66495 15.2214 2.1658C14.7251 1.66665 14.052 1.38592 13.35 1.38527H12.6466C12.5365 1.02823 12.3027 0.722714 11.9877 0.524173C11.6727 0.325633 11.2974 0.24723 10.9298 0.303198C10.5622 0.359165 10.2268 0.545793 9.98435 0.829204C9.74194 1.11261 9.60863 1.47402 9.60862 1.84782V4.04755C9.60863 4.42135 9.74194 4.78276 9.98435 5.06617C10.2268 5.34958 10.5622 5.5362 10.9298 5.59217C11.2974 5.64814 11.6727 5.56974 11.9877 5.3712C12.3027 5.17265 12.5365 4.86714 12.6466 4.5101H12.89V7.89689C12.89 9.08673 12.4199 10.2278 11.5831 11.0692C10.7463 11.9105 9.61138 12.3832 8.42798 12.3832C7.24458 12.3832 6.10965 11.9105 5.27286 11.0692C4.43607 10.2278 3.96596 9.08673 3.96596 7.89689V4.5101H4.20864C4.31883 4.86713 4.55266 5.17261 4.8677 5.37113C5.18274 5.56964 5.55812 5.64803 5.92573 5.59207C6.29334 5.53611 6.62882 5.34952 6.8713 5.06614C7.11378 4.78276 7.2472 4.42137 7.24734 4.04755V1.84782C7.2472 1.474 7.11378 1.11261 6.8713 0.829231C6.62882 0.545851 6.29334 0.359254 5.92573 0.303296C5.55812 0.247339 5.18274 0.325728 4.8677 0.524242C4.55266 0.722756 4.31883 1.02824 4.20864 1.38527H3.50591C2.80383 1.38586 2.13068 1.66654 1.63423 2.16569C1.13779 2.66484 0.858624 3.34165 0.858032 4.04755V7.89689C0.860054 9.64355 1.45869 11.3365 2.55375 12.6924C3.64881 14.0484 5.17385 14.985 6.87364 15.3456V19.4442C6.87364 21.6086 7.72879 23.6843 9.25097 25.2148C10.7732 26.7452 12.8377 27.605 14.9904 27.605C17.143 27.605 19.2076 26.7452 20.7297 25.2148C22.2519 23.6843 23.1071 21.6086 23.1071 19.4442V18.4001C23.7253 18.0543 24.2119 17.5119 24.4904 16.858C24.7688 16.2041 24.8235 15.4757 24.6457 14.7872C24.4679 14.0988 24.0678 13.4891 23.5081 13.054C22.9485 12.6189 22.261 12.3829 21.5535 12.3832ZM7.33369 14.9601H7.33443L7.33369 14.9631V14.9601Z" fill="white"/>
</svg>
