<svg width="25" height="28" viewBox="0 0 25 28" fill="none" xmlns="http://www.w3.org/2000/svg">
<path fill-rule="evenodd" clip-rule="evenodd" d="M21.5535 12.335C20.846 12.3345 20.1583 12.5704 19.5985 13.0054C19.0387 13.4405 18.6385 14.0501 18.4606 14.7387C18.2827 15.4272 18.3373 16.1556 18.6158 16.8096C18.8943 17.4636 19.3808 18.006 19.9991 18.3518V19.396C19.9991 20.7316 19.4714 22.0125 18.5321 22.957C17.5928 23.9014 16.3188 24.432 14.9904 24.432C13.6619 24.432 12.3879 23.9014 11.4486 22.957C10.5093 22.0125 9.98157 20.7316 9.98157 19.396V15.2974C11.6813 14.9368 13.2064 14.0001 14.3014 12.6442C15.3965 11.2883 15.9951 9.59532 15.9972 7.84868V3.99933C15.9967 3.29352 15.7177 2.61674 15.2214 2.11758C14.7251 1.61843 14.052 1.3377 13.35 1.33705H12.6466C12.5365 0.980014 12.3027 0.674496 11.9877 0.475956C11.6727 0.277415 11.2974 0.199013 10.9298 0.25498C10.5622 0.310948 10.2268 0.497576 9.98435 0.780986C9.74194 1.0644 9.60863 1.4258 9.60862 1.7996V3.99933C9.60863 4.37313 9.74194 4.73454 9.98435 5.01795C10.2268 5.30136 10.5622 5.48799 10.9298 5.54395C11.2974 5.59992 11.6727 5.52152 11.9877 5.32298C12.3027 5.12444 12.5365 4.81892 12.6466 4.46188H12.89V7.84868C12.89 9.03851 12.4199 10.1796 11.5831 11.021C10.7463 11.8623 9.61138 12.335 8.42798 12.335C7.24458 12.335 6.10965 11.8623 5.27286 11.021C4.43607 10.1796 3.96596 9.03851 3.96596 7.84868V4.46188H4.20864C4.31883 4.81891 4.55266 5.12439 4.8677 5.32291C5.18274 5.52142 5.55812 5.59981 5.92573 5.54385C6.29334 5.4879 6.62882 5.3013 6.8713 5.01792C7.11378 4.73454 7.2472 4.37315 7.24734 3.99933V1.7996C7.2472 1.42578 7.11378 1.06439 6.8713 0.781013C6.62882 0.497633 6.29334 0.311036 5.92573 0.255078C5.55812 0.199121 5.18274 0.27751 4.8677 0.476024C4.55266 0.674538 4.31883 0.980024 4.20864 1.33705H3.50591C2.80383 1.33765 2.13068 1.61833 1.63423 2.11747C1.13779 2.61662 0.858624 3.29343 0.858032 3.99933V7.84868C0.860054 9.59533 1.45869 11.2883 2.55375 12.6442C3.64881 14.0002 5.17385 14.9368 6.87364 15.2974V19.396C6.87364 21.5603 7.72879 23.6361 9.25097 25.1666C10.7732 26.697 12.8377 27.5568 14.9904 27.5568C17.143 27.5568 19.2076 26.697 20.7297 25.1666C22.2519 23.6361 23.1071 21.5603 23.1071 19.396V18.3518C23.7253 18.0061 24.2119 17.4637 24.4904 16.8098C24.7688 16.1559 24.8235 15.4275 24.6457 14.739C24.4679 14.0505 24.0678 13.4409 23.5081 13.0058C22.9485 12.5706 22.261 12.3347 21.5535 12.335ZM7.33369 14.9119H7.33443L7.33369 14.9149V14.9119Z" fill="url(#paint0_linear)"/>
<defs>
<linearGradient id="paint0_linear" x1="24.7482" y1="27.5568" x2="-3.20004" y2="22.4512" gradientUnits="userSpaceOnUse">
<stop stop-color="#00A473"/>
<stop offset="1" stop-color="#24E97E"/>
</linearGradient>
</defs>
</svg>
