<svg width="24" height="24" viewBox="0 0 24 24" fill="none" xmlns="http://www.w3.org/2000/svg">
<path fill-rule="evenodd" clip-rule="evenodd" d="M9.11545 0.423401C8.01088 0.423401 7.11545 1.31883 7.11545 2.4234V6.9176H2.62122C1.51665 6.9176 0.621216 7.81303 0.621216 8.9176V15.0825C0.621216 16.1871 1.51665 17.0825 2.62122 17.0825H7.11545V21.5768C7.11545 22.6814 8.01088 23.5768 9.11545 23.5768H15.2804C16.3849 23.5768 17.2804 22.6814 17.2804 21.5768V17.0825H21.7746C22.8792 17.0825 23.7746 16.1871 23.7746 15.0825V8.9176C23.7746 7.81303 22.8792 6.9176 21.7746 6.9176H17.2804V2.4234C17.2804 1.31883 16.3849 0.423401 15.2804 0.423401H9.11545Z" fill="url(#paint0_linear)"/>
<defs>
<linearGradient id="paint0_linear" x1="23.7746" y1="23.5768" x2="-3.04521" y2="17.974" gradientUnits="userSpaceOnUse">
<stop stop-color="#00A473"/>
<stop offset="1" stop-color="#24E97E"/>
</linearGradient>
</defs>
</svg>
