<svg width="29" height="29" viewBox="0 0 29 29" fill="none" xmlns="http://www.w3.org/2000/svg">
<path d="M21.7105 28.9229H21.1161C19.969 28.9229 19.0358 27.9897 19.0358 26.8426V24.1679H16.3612C15.214 24.1679 14.2809 23.2348 14.2809 22.0877V21.4933C14.2809 20.3462 15.214 19.413 16.3612 19.413H19.0358V16.7384C19.0358 15.5912 19.969 14.6581 21.1161 14.6581H21.7105C22.8576 14.6581 23.7907 15.5912 23.7907 16.7384V19.413H26.4654C27.6125 19.413 28.5457 20.3462 28.5457 21.4933V22.0877C28.5457 23.2348 27.6125 24.1679 26.4654 24.1679H23.7907V26.8426C23.7907 27.9897 22.8576 28.9229 21.7105 28.9229Z" fill="#002341"/>
<path d="M10.7147 12.2806C13.9973 12.2806 16.6583 9.6195 16.6583 6.33691C16.6583 3.05432 13.9973 0.39325 10.7147 0.39325C7.43206 0.39325 4.771 3.05432 4.771 6.33691C4.771 9.6195 7.43206 12.2806 10.7147 12.2806Z" fill="#002341"/>
<path d="M11.9034 22.0877V21.4933C11.9034 19.035 13.9029 17.0355 16.3612 17.0355H16.6584V16.7384C16.6584 16.0822 16.8093 15.464 17.0649 14.9018C16.5538 14.7591 16.026 14.6581 15.4696 14.6581H5.95977C2.67768 14.6581 0.0161133 17.3197 0.0161133 20.6017V24.4651C0.0161133 24.9573 0.415527 25.3567 0.907662 25.3567H13.3537C12.4681 24.5412 11.9034 23.3834 11.9034 22.0877Z" fill="#002341"/>
</svg>
