<svg width="24" height="25" viewBox="0 0 24 25" fill="none" xmlns="http://www.w3.org/2000/svg">
<path d="M21.5539 1.91516C19.1886 -0.551636 15.3412 -0.551636 12.9759 1.91516L8.63799 6.44166C8.26731 6.82846 8.26731 7.43867 8.63799 7.82547L12.9938 12.3707C13.3628 12.7557 13.9653 12.776 14.4109 12.483C15.4364 11.8085 16.6389 11.407 17.9389 11.407C18.6188 11.407 19.2748 11.5138 19.8937 11.7108C20.3116 11.8438 20.7798 11.7488 21.069 11.4191L21.5539 10.8662C23.9186 8.39872 23.9186 4.38336 21.5539 1.91516Z" fill="#002341"/>
<path d="M12.2232 14.7709C12.4778 14.347 12.4548 13.797 12.1126 13.44L7.74424 8.88173C7.35043 8.4708 6.69354 8.47097 6.29993 8.88209L2.1273 13.2404C-0.23734 15.7079 -0.23734 19.7233 2.1273 22.1914C4.49257 24.6581 8.38492 24.7051 10.7503 22.2383L11.2946 21.6675C11.567 21.3819 11.6399 20.9645 11.5232 20.5874C11.3137 19.91 11.1995 19.1885 11.1995 18.4393C11.1996 17.0883 11.5819 15.8385 12.2232 14.7709Z" fill="#002341"/>
<path d="M12.5474 18.4393C12.5474 20.8928 14.0582 22.9602 16.1592 23.7239C16.727 23.9303 17.2649 23.458 17.2649 22.8539V14.0247C17.2649 13.4206 16.727 12.9483 16.1592 13.1547C14.0582 13.9184 12.5474 15.9857 12.5474 18.4393Z" fill="#002341"/>
<path d="M19.7184 13.1547C19.1506 12.9483 18.6127 13.4206 18.6127 14.0247V22.8539C18.6127 23.458 19.1506 23.9303 19.7184 23.7239C21.8194 22.9602 23.3302 20.8928 23.3302 18.4393C23.3302 15.9857 21.8195 13.9184 19.7184 13.1547Z" fill="#002341"/>
</svg>
