<svg width="41" height="41" viewBox="0 0 41 41" fill="none" xmlns="http://www.w3.org/2000/svg">
<rect x="6.21826" y="4.74146" width="29.4148" height="29.4148" fill="white"/>
<path d="M30.1431 0.126017C33.0201 -0.0537968 35.8572 0.94517 37.995 2.90314C39.953 5.04093 40.952 7.878 40.7922 10.775V29.4357C40.972 32.3327 39.953 35.1698 38.015 37.3075C35.8772 39.2655 33.0201 40.2645 30.1431 40.0847H11.4822C8.58521 40.2645 5.74813 39.2655 3.61032 37.3075C1.65233 35.1698 0.653355 32.3327 0.833171 29.4357V10.775C0.653355 7.878 1.65233 5.04093 3.61032 2.90314C5.74813 0.94517 8.58521 -0.0537968 11.4822 0.126017H30.1431ZM29.6236 9.25657C28.3849 8.01785 26.3869 8.01785 25.1482 9.25657L23.8096 10.6152C23.6098 10.815 23.6098 11.1546 23.8096 11.3544C23.8096 11.3544 23.8488 11.3934 23.9186 11.4628L24.41 11.9515C24.6943 12.2344 25.0491 12.5876 25.4054 12.9428L26.6136 14.1504C26.8657 14.4036 27.0329 14.5733 27.0463 14.5911C27.266 14.8308 27.4059 15.1505 27.4059 15.5101C27.4059 16.2294 26.8265 16.8287 26.0872 16.8287C25.7476 16.8287 25.4279 16.6889 25.2081 16.4691L21.8716 13.1525C21.7117 12.9927 21.432 12.9927 21.2722 13.1525L11.742 22.6827C11.0826 23.342 10.703 24.2211 10.6831 25.1601L10.5632 29.8952C10.5632 30.1549 10.6431 30.3947 10.8229 30.5745C11.0027 30.7543 11.2425 30.8542 11.5022 30.8542H16.1974C17.1564 30.8542 18.0755 30.4746 18.7748 29.7953L32.2209 16.3093C33.4397 15.0706 33.4397 13.0726 32.2209 11.8539L29.6236 9.25657Z" fill="url(#paint0_linear)"/>
<defs>
<linearGradient id="paint0_linear" x1="40.8125" y1="40.1053" x2="-5.52164" y2="30.4259" gradientUnits="userSpaceOnUse">
<stop stop-color="#00A473"/>
<stop offset="1" stop-color="#24E97E"/>
</linearGradient>
</defs>
</svg>
