<svg width="26" height="27" viewBox="0 0 26 27" fill="none" xmlns="http://www.w3.org/2000/svg">
<path fill-rule="evenodd" clip-rule="evenodd" d="M10.8934 5.57294H5.08345C1.96382 5.57294 0.147461 7.39956 0.147461 10.5294V21.13C0.147461 24.3112 1.96382 26.0968 5.08345 26.0968H13.684C16.8539 26.0968 18.6189 24.3112 18.6189 21.13V14.5823C18.5274 14.5951 18.4338 14.6017 18.3387 14.6017H16.5869C15.4823 14.6017 14.5869 13.7063 14.5869 12.6017V10.927H12.9119C11.8695 10.927 11.0134 10.1296 10.9203 9.1116C10.9026 9.0046 10.8934 8.89474 10.8934 8.78273V5.57294ZM4.59087 20.0525C4.75507 19.7857 5.05266 19.642 5.36052 19.6728H13.4059C13.8153 19.7139 14.1242 20.0628 14.1242 20.4835C14.1242 20.893 13.8153 21.2429 13.4059 21.2839H5.36052C5.05266 21.325 4.75507 21.1711 4.59087 20.9145C4.42668 20.6477 4.42668 20.3091 4.59087 20.0525ZM5.36052 14.9924H13.4059C13.8471 14.9924 14.2063 15.3526 14.2063 15.7938C14.2063 16.2351 13.8471 16.5942 13.4059 16.5942H5.36052C4.91823 16.5942 4.56009 16.2351 4.56009 15.7938C4.56009 15.3526 4.91823 14.9924 5.36052 14.9924ZM5.36052 10.3447H8.42781C8.8701 10.3447 9.22927 10.7039 9.22927 11.1441C9.22927 11.5967 8.8701 11.9559 8.42781 11.9559H5.36052C4.91823 11.9559 4.56009 11.5967 4.56009 11.1554C4.56009 10.7142 4.91823 10.355 5.36052 10.355V10.3447Z" fill="white"/>
<path fill-rule="evenodd" clip-rule="evenodd" d="M17.4634 0.372253C16.9112 0.372253 16.4634 0.819969 16.4634 1.37225V3.76712H14.0684C13.5161 3.76712 13.0684 4.21483 13.0684 4.76712L13.0684 8.08082C13.0684 8.63311 13.5161 9.08082 14.0684 9.08082H16.4634V11.4757C16.4634 12.028 16.9112 12.4757 17.4634 12.4757H20.7771C21.3294 12.4757 21.7771 12.028 21.7771 11.4757V9.08082H24.1718C24.7241 9.08082 25.1718 8.63311 25.1718 8.08082V4.76712C25.1718 4.21483 24.7241 3.76712 24.1718 3.76712H21.7771V1.37225C21.7771 0.819969 21.3294 0.372253 20.7771 0.372253H17.4634Z" fill="white"/>
</svg>
