<svg width="37" height="41" viewBox="0 0 37 41" fill="none" xmlns="http://www.w3.org/2000/svg">
<path d="M27.1 0.930603C33.278 0.930603 36.718 4.4906 36.718 10.5906V31.2506C36.718 37.4506 33.278 40.9306 27.1 40.9306H10.338C4.25802 40.9306 0.718018 37.4506 0.718018 31.2506V10.5906C0.718018 4.4906 4.25802 0.930603 10.338 0.930603H27.1ZM10.878 28.4106C10.278 28.3506 9.69802 28.6306 9.37802 29.1506C9.05802 29.6506 9.05802 30.3106 9.37802 30.8306C9.69802 31.3306 10.278 31.6306 10.878 31.5506H26.558C27.356 31.4706 27.958 30.7886 27.958 29.9906C27.958 29.1706 27.356 28.4906 26.558 28.4106H10.878ZM26.558 19.2886H10.878C10.016 19.2886 9.31802 19.9906 9.31802 20.8506C9.31802 21.7106 10.016 22.4106 10.878 22.4106H26.558C27.418 22.4106 28.118 21.7106 28.118 20.8506C28.118 19.9906 27.418 19.2886 26.558 19.2886ZM16.856 10.2306H10.878V10.2506C10.016 10.2506 9.31802 10.9506 9.31802 11.8106C9.31802 12.6706 10.016 13.3706 10.878 13.3706H16.856C17.718 13.3706 18.418 12.6706 18.418 11.7886C18.418 10.9306 17.718 10.2306 16.856 10.2306Z" fill="url(#paint0_linear)"/>
<defs>
<linearGradient id="paint0_linear" x1="36.718" y1="40.9306" x2="-5.31668" y2="33.0274" gradientUnits="userSpaceOnUse">
<stop stop-color="#00A473"/>
<stop offset="1" stop-color="#24E97E"/>
</linearGradient>
</defs>
</svg>
