<svg width="26" height="27" viewBox="0 0 26 27" fill="none" xmlns="http://www.w3.org/2000/svg">
<path fill-rule="evenodd" clip-rule="evenodd" d="M11.5108 5.57294H5.70088C2.58125 5.57294 0.764893 7.39956 0.764893 10.5294V21.13C0.764893 24.3112 2.58125 26.0968 5.70088 26.0968H14.3014C17.4713 26.0968 19.2364 24.3112 19.2364 21.13V14.5823C19.1448 14.5951 19.0512 14.6017 18.9561 14.6017H17.2043C16.0998 14.6017 15.2043 13.7063 15.2043 12.6017V10.927H13.5293C12.487 10.927 11.6309 10.1296 11.5377 9.1116C11.52 9.0046 11.5108 8.89474 11.5108 8.78273V5.57294ZM5.20831 20.0525C5.3725 19.7857 5.67009 19.642 5.97795 19.6728H14.0233C14.4328 19.7139 14.7416 20.0628 14.7416 20.4835C14.7416 20.893 14.4328 21.2429 14.0233 21.2839H5.97795C5.67009 21.325 5.3725 21.1711 5.20831 20.9145C5.04412 20.6477 5.04412 20.3091 5.20831 20.0525ZM5.97795 14.9924H14.0233C14.4646 14.9924 14.8237 15.3526 14.8237 15.7938C14.8237 16.2351 14.4646 16.5942 14.0233 16.5942H5.97795C5.53566 16.5942 5.17752 16.2351 5.17752 15.7938C5.17752 15.3526 5.53566 14.9924 5.97795 14.9924ZM5.97795 10.3447H9.04524C9.48753 10.3447 9.8467 10.7039 9.8467 11.1441C9.8467 11.5967 9.48753 11.9559 9.04524 11.9559H5.97795C5.53566 11.9559 5.17752 11.5967 5.17752 11.1554C5.17752 10.7142 5.53566 10.355 5.97795 10.355V10.3447Z" fill="#002341"/>
<path fill-rule="evenodd" clip-rule="evenodd" d="M18.0809 0.372253C17.5286 0.372253 17.0809 0.819969 17.0809 1.37225V3.76712H14.6858C14.1335 3.76712 13.6858 4.21483 13.6858 4.76712L13.6858 8.08082C13.6858 8.63311 14.1335 9.08082 14.6858 9.08082H17.0809V11.4757C17.0809 12.028 17.5286 12.4757 18.0809 12.4757H21.3946C21.9469 12.4757 22.3946 12.028 22.3946 11.4757V9.08082H24.7892C25.3415 9.08082 25.7892 8.63311 25.7892 8.08082V4.76712C25.7892 4.21483 25.3415 3.76712 24.7892 3.76712H22.3946V1.37225C22.3946 0.819969 21.9469 0.372253 21.3946 0.372253H18.0809Z" fill="#002341"/>
</svg>
