<svg width="26" height="27" viewBox="0 0 26 27" fill="none" xmlns="http://www.w3.org/2000/svg">
<path fill-rule="evenodd" clip-rule="evenodd" d="M10.993 5.57294H5.18306C2.06343 5.57294 0.24707 7.39956 0.24707 10.5294V21.13C0.24707 24.3112 2.06343 26.0968 5.18306 26.0968H13.7836C16.9535 26.0968 18.7185 24.3112 18.7185 21.13V14.5823C18.627 14.5951 18.5334 14.6017 18.4383 14.6017H16.6865C15.582 14.6017 14.6865 13.7063 14.6865 12.6017V10.927H13.0115C11.9691 10.927 11.113 10.1296 11.0199 9.1116C11.0022 9.00461 10.993 8.89474 10.993 8.78273V5.57294ZM4.69048 20.0525C4.85467 19.7857 5.15227 19.642 5.46013 19.6728H13.5055C13.9149 19.7139 14.2238 20.0628 14.2238 20.4835C14.2238 20.893 13.9149 21.2429 13.5055 21.2839H5.46013C5.15227 21.325 4.85467 21.1711 4.69048 20.9145C4.52629 20.6477 4.52629 20.3091 4.69048 20.0525ZM5.46013 14.9924H13.5055C13.9467 14.9924 14.3059 15.3526 14.3059 15.7938C14.3059 16.2351 13.9467 16.5942 13.5055 16.5942H5.46013C5.01784 16.5942 4.6597 16.2351 4.6597 15.7938C4.6597 15.3526 5.01784 14.9924 5.46013 14.9924ZM5.46013 10.3447H8.52742C8.96971 10.3447 9.32887 10.7039 9.32887 11.1441C9.32887 11.5967 8.96971 11.9559 8.52742 11.9559H5.46013C5.01784 11.9559 4.6597 11.5967 4.6597 11.1554C4.6597 10.7142 5.01784 10.355 5.46013 10.355V10.3447Z" fill="url(#paint0_linear)"/>
<path fill-rule="evenodd" clip-rule="evenodd" d="M17.563 0.372253C17.0108 0.372253 16.563 0.819969 16.563 1.37225V3.76712H14.168C13.6157 3.76712 13.168 4.21483 13.168 4.76712L13.168 8.08082C13.168 8.63311 13.6157 9.08082 14.168 9.08082H16.563V11.4757C16.563 12.028 17.0108 12.4757 17.563 12.4757H20.8768C21.429 12.4757 21.8768 12.028 21.8768 11.4757V9.08082H24.2714C24.8237 9.08082 25.2714 8.63311 25.2714 8.08082V4.76712C25.2714 4.21483 24.8237 3.76712 24.2714 3.76712H21.8768V1.37225C21.8768 0.819969 21.429 0.372253 20.8768 0.372253H17.563Z" fill="url(#paint1_linear)"/>
<defs>
<linearGradient id="paint0_linear" x1="18.7185" y1="26.0968" x2="-2.84931" y2="22.0417" gradientUnits="userSpaceOnUse">
<stop stop-color="#00A473"/>
<stop offset="1" stop-color="#24E97E"/>
</linearGradient>
<linearGradient id="paint1_linear" x1="25.2714" y1="12.4757" x2="11.2514" y2="9.5468" gradientUnits="userSpaceOnUse">
<stop stop-color="#00A473"/>
<stop offset="1" stop-color="#24E97E"/>
</linearGradient>
</defs>
</svg>
