<svg width="25" height="26" viewBox="0 0 25 26" fill="none" xmlns="http://www.w3.org/2000/svg">
<path fill-rule="evenodd" clip-rule="evenodd" d="M17.1995 12.923C16.6472 12.923 16.1995 13.3707 16.1995 13.923V16.3178H13.8044C13.2522 16.3178 12.8044 16.7656 12.8044 17.3178L12.8044 20.6315C12.8044 21.1838 13.2522 21.6315 13.8044 21.6315H16.1995V24.0264C16.1995 24.5787 16.6472 25.0264 17.1995 25.0264H20.5132C21.0655 25.0264 21.5132 24.5787 21.5132 24.0264V21.6315H23.9079C24.4601 21.6315 24.9079 21.1838 24.9079 20.6315V17.3178C24.9079 16.7656 24.4601 16.3178 23.9079 16.3178H21.5132V13.923C21.5132 13.3707 21.0655 12.923 20.5132 12.923H17.1995Z" fill="url(#paint0_linear)"/>
<path d="M21.6508 1.95374C19.2855 -0.513062 15.4381 -0.513062 13.0728 1.95374L8.73485 6.48024C8.36417 6.86704 8.36417 7.47725 8.73485 7.86405L13.0906 12.4092C13.4597 12.7943 14.0622 12.8146 14.5078 12.5215C15.5332 11.8471 16.7357 11.4456 18.0357 11.4456C18.7156 11.4456 19.3717 11.5524 19.9906 11.7494C20.4085 11.8824 20.8766 11.7873 21.1659 11.4576L21.6508 10.9048C24.0154 8.4373 24.0154 4.42194 21.6508 1.95374Z" fill="url(#paint1_linear)"/>
<path d="M12.32 14.8095C12.5746 14.3856 12.5516 13.8356 12.2095 13.4786L7.84111 8.92031C7.4473 8.50938 6.7904 8.50954 6.39679 8.92066L2.22417 13.279C-0.140477 15.7464 -0.140477 19.7618 2.22417 22.23C4.58944 24.6967 8.48178 24.7437 10.8471 22.2768L11.3915 21.7061C11.6639 21.4205 11.7367 21.003 11.6201 20.6259C11.4105 19.9486 11.2964 19.2271 11.2964 18.4778C11.2964 17.1268 11.6788 15.8771 12.32 14.8095Z" fill="url(#paint2_linear)"/>
<defs>
<linearGradient id="paint0_linear" x1="24.9079" y1="25.0264" x2="10.8878" y2="22.0975" gradientUnits="userSpaceOnUse">
<stop stop-color="#00A473"/>
<stop offset="1" stop-color="#24E97E"/>
</linearGradient>
<linearGradient id="paint1_linear" x1="23.4243" y1="13.0969" x2="5.93044" y2="8.7787" gradientUnits="userSpaceOnUse">
<stop stop-color="#00A473"/>
<stop offset="1" stop-color="#24E97E"/>
</linearGradient>
<linearGradient id="paint2_linear" x1="12.8045" y1="24.1037" x2="-1.74848" y2="21.747" gradientUnits="userSpaceOnUse">
<stop stop-color="#00A473"/>
<stop offset="1" stop-color="#24E97E"/>
</linearGradient>
</defs>
</svg>
