<svg width="26" height="26" viewBox="0 0 26 26" fill="none" xmlns="http://www.w3.org/2000/svg">
<path d="M21.954 2.5473C19.5887 0.0805054 15.7413 0.0805054 13.376 2.5473L9.03808 7.0738C8.66739 7.4606 8.66739 8.07082 9.03808 8.45761L13.3939 13.0028C13.7629 13.3879 14.3654 13.4082 14.811 13.1151C15.8365 12.4407 17.039 12.0392 18.3389 12.0392C19.0189 12.0392 19.6749 12.146 20.2938 12.3429C20.7117 12.476 21.1799 12.3809 21.4691 12.0512L21.954 11.4984C24.3187 9.03086 24.3187 5.01551 21.954 2.5473Z" fill="url(#paint0_linear)"/>
<path fill-rule="evenodd" clip-rule="evenodd" d="M17.5027 13.5165C16.9505 13.5165 16.5027 13.9643 16.5027 14.5165V16.9114H14.1077C13.5554 16.9114 13.1077 17.3591 13.1077 17.9114L13.1077 21.2251C13.1077 21.7774 13.5554 22.2251 14.1077 22.2251H16.5027V24.62C16.5027 25.1722 16.9505 25.62 17.5027 25.62H20.8165C21.3687 25.62 21.8165 25.1722 21.8165 24.62V22.2251H24.2111C24.7634 22.2251 25.2111 21.7774 25.2111 21.2251V17.9114C25.2111 17.3591 24.7634 16.9114 24.2111 16.9114H21.8165V14.5165C21.8165 13.9643 21.3687 13.5165 20.8165 13.5165H17.5027Z" fill="url(#paint1_linear)"/>
<path d="M12.6232 15.403C12.8778 14.9791 12.8548 14.4292 12.5127 14.0721L8.14433 9.51387C7.75052 9.10294 7.09362 9.10311 6.70002 9.51423L2.52739 13.8726C0.162745 16.34 0.162745 20.3554 2.52739 22.8236C4.89266 25.2902 8.78501 25.3373 11.1504 22.8704L11.6947 22.2997C11.9671 22.014 12.04 21.5966 11.9233 21.2195C11.7138 20.5421 11.5996 19.8207 11.5996 19.0714C11.5997 17.7204 11.982 16.4706 12.6232 15.403Z" fill="url(#paint2_linear)"/>
<defs>
<linearGradient id="paint0_linear" x1="23.7275" y1="13.6904" x2="6.23366" y2="9.37227" gradientUnits="userSpaceOnUse">
<stop stop-color="#00A473"/>
<stop offset="1" stop-color="#24E97E"/>
</linearGradient>
<linearGradient id="paint1_linear" x1="25.2111" y1="25.62" x2="11.191" y2="22.6911" gradientUnits="userSpaceOnUse">
<stop stop-color="#00A473"/>
<stop offset="1" stop-color="#24E97E"/>
</linearGradient>
<linearGradient id="paint2_linear" x1="13.1077" y1="24.6972" x2="-1.44526" y2="22.3406" gradientUnits="userSpaceOnUse">
<stop stop-color="#00A473"/>
<stop offset="1" stop-color="#24E97E"/>
</linearGradient>
</defs>
</svg>
