<svg width="23" height="24" viewBox="0 0 23 24" fill="none" xmlns="http://www.w3.org/2000/svg">
<path d="M11.2201 0.913025C17.499 0.913025 22.2525 6.0611 22.2525 11.9509C22.2525 18.7818 16.681 23.0221 11.198 23.0221C9.38501 23.0221 7.37309 22.5349 5.75913 21.5828C5.19535 21.2396 4.72 20.985 4.112 21.1843L1.87899 21.8485C1.31521 22.0257 0.806704 21.5828 0.972522 20.985L1.71317 18.505C1.83477 18.1618 1.81267 17.7965 1.63579 17.5086C0.685104 15.7594 0.143433 13.8441 0.143433 11.9842C0.143433 6.16074 4.79739 0.913025 11.2201 0.913025ZM16.272 10.5781C15.4871 10.5781 14.857 11.2092 14.857 11.9952C14.857 12.7702 15.4871 13.4123 16.272 13.4123C17.0568 13.4123 17.687 12.7702 17.687 11.9952C17.687 11.2092 17.0568 10.5781 16.272 10.5781ZM11.1758 10.5781C10.402 10.567 9.76086 11.2092 9.76086 11.9842C9.76086 12.7702 10.391 13.4013 11.1758 13.4123C11.9607 13.4123 12.5908 12.7702 12.5908 11.9952C12.5908 11.2092 11.9607 10.5781 11.1758 10.5781ZM6.07971 10.5781C5.29484 10.5781 4.66473 11.2092 4.66473 11.9952C4.66473 12.7702 5.30589 13.4123 6.07971 13.4123C6.86458 13.4013 7.49469 12.7702 7.49469 11.9952C7.49469 11.2092 6.86458 10.5781 6.07971 10.5781Z" fill="url(#paint0_linear)"/>
<defs>
<linearGradient id="paint0_linear" x1="22.2525" y1="23.0221" x2="-3.35761" y2="17.672" gradientUnits="userSpaceOnUse">
<stop stop-color="#00A473"/>
<stop offset="1" stop-color="#24E97E"/>
</linearGradient>
</defs>
</svg>
