<svg width="25" height="25" viewBox="0 0 25 25" fill="none" xmlns="http://www.w3.org/2000/svg">
<path fill-rule="evenodd" clip-rule="evenodd" d="M2.62469 0.355042C1.52013 0.355042 0.624695 1.25047 0.624695 2.35504V9.04462C0.624695 10.1492 1.52013 11.0446 2.6247 11.0446H9.31427C10.4188 11.0446 11.3143 10.1492 11.3143 9.04462V2.35504C11.3143 1.25047 10.4188 0.355042 9.31427 0.355042H2.62469ZM19.28 0.355042C16.3282 0.355042 13.9352 2.74799 13.9352 5.69983C13.9352 8.65168 16.3282 11.0446 19.28 11.0446C22.2318 11.0446 24.6248 8.65168 24.6248 5.69983C24.6248 2.74799 22.2318 0.355042 19.28 0.355042ZM13.9352 15.6655C13.9352 14.5609 14.8306 13.6655 15.9352 13.6655H22.6248C23.7294 13.6655 24.6248 14.5609 24.6248 15.6655V22.3551C24.6248 23.4596 23.7294 24.3551 22.6248 24.3551H15.9352C14.8306 24.3551 13.9352 23.4596 13.9352 22.3551V15.6655ZM2.62469 13.6655C1.52013 13.6655 0.624695 14.5609 0.624695 15.6655V22.3551C0.624695 23.4596 1.52013 24.3551 2.6247 24.3551H9.31427C10.4188 24.3551 11.3143 23.4596 11.3143 22.3551V15.6655C11.3143 14.5609 10.4188 13.6655 9.31427 13.6655H2.62469Z" fill="white"/>
</svg>
