<svg width="25" height="25" viewBox="0 0 25 25" fill="none" xmlns="http://www.w3.org/2000/svg">
<path fill-rule="evenodd" clip-rule="evenodd" d="M2.63214 0.355042C1.52757 0.355042 0.632141 1.25047 0.632141 2.35504V9.04462C0.632141 10.1492 1.52757 11.0446 2.63214 11.0446H9.32172C10.4263 11.0446 11.3217 10.1492 11.3217 9.04462V2.35504C11.3217 1.25047 10.4263 0.355042 9.32172 0.355042H2.63214ZM19.2874 0.355042C16.3356 0.355042 13.9427 2.74799 13.9427 5.69983C13.9427 8.65168 16.3356 11.0446 19.2874 11.0446C22.2393 11.0446 24.6322 8.65168 24.6322 5.69983C24.6322 2.74799 22.2393 0.355042 19.2874 0.355042ZM13.9427 15.6655C13.9427 14.5609 14.8381 13.6655 15.9427 13.6655H22.6322C23.7368 13.6655 24.6322 14.5609 24.6322 15.6655V22.3551C24.6322 23.4596 23.7368 24.3551 22.6322 24.3551H15.9427C14.8381 24.3551 13.9427 23.4596 13.9427 22.3551V15.6655ZM2.63214 13.6655C1.52757 13.6655 0.632141 14.5609 0.632141 15.6655V22.3551C0.632141 23.4596 1.52757 24.3551 2.63214 24.3551H9.32172C10.4263 24.3551 11.3217 23.4596 11.3217 22.3551V15.6655C11.3217 14.5609 10.4263 13.6655 9.32172 13.6655H2.63214Z" fill="#002341"/>
</svg>
