<svg width="23" height="26" viewBox="0 0 23 26" fill="none" xmlns="http://www.w3.org/2000/svg">
<path d="M1.76196 22.7599C1.76196 23.3815 2.00889 23.9776 2.44843 24.4172C2.88797 24.8567 3.48411 25.1036 4.10571 25.1036H18.1682C18.7898 25.1036 19.386 24.8567 19.8255 24.4172C20.265 23.9776 20.512 23.3815 20.512 22.7599V6.35365H1.76196V22.7599ZM15.0432 10.2599C15.0432 10.0527 15.1255 9.85398 15.272 9.70747C15.4185 9.56096 15.6173 9.47865 15.8245 9.47865C16.0317 9.47865 16.2304 9.56096 16.3769 9.70747C16.5234 9.85398 16.6057 10.0527 16.6057 10.2599V21.1974C16.6057 21.4046 16.5234 21.6033 16.3769 21.7498C16.2304 21.8963 16.0317 21.9786 15.8245 21.9786C15.6173 21.9786 15.4185 21.8963 15.272 21.7498C15.1255 21.6033 15.0432 21.4046 15.0432 21.1974V10.2599ZM10.3557 10.2599C10.3557 10.0527 10.438 9.85398 10.5845 9.70747C10.731 9.56096 10.9298 9.47865 11.137 9.47865C11.3442 9.47865 11.5429 9.56096 11.6894 9.70747C11.8359 9.85398 11.9182 10.0527 11.9182 10.2599V21.1974C11.9182 21.4046 11.8359 21.6033 11.6894 21.7498C11.5429 21.8963 11.3442 21.9786 11.137 21.9786C10.9298 21.9786 10.731 21.8963 10.5845 21.7498C10.438 21.6033 10.3557 21.4046 10.3557 21.1974V10.2599ZM5.66821 10.2599C5.66821 10.0527 5.75052 9.85398 5.89704 9.70747C6.04355 9.56096 6.24226 9.47865 6.44946 9.47865C6.65666 9.47865 6.85538 9.56096 7.00189 9.70747C7.1484 9.85398 7.23071 10.0527 7.23071 10.2599V21.1974C7.23071 21.4046 7.1484 21.6033 7.00189 21.7498C6.85538 21.8963 6.65666 21.9786 6.44946 21.9786C6.24226 21.9786 6.04355 21.8963 5.89704 21.7498C5.75052 21.6033 5.66821 21.4046 5.66821 21.1974V10.2599ZM21.2932 1.66615H15.4338L14.9749 0.75306C14.8776 0.557852 14.7279 0.393648 14.5424 0.278919C14.3569 0.16419 14.1431 0.10349 13.925 0.103646H8.34399C8.12641 0.10281 7.91298 0.163284 7.72818 0.27814C7.54337 0.392996 7.39466 0.557589 7.29907 0.75306L6.84009 1.66615H0.980713C0.773512 1.66615 0.574799 1.74846 0.428286 1.89497C0.281773 2.04148 0.199463 2.2402 0.199463 2.4474L0.199463 4.0099C0.199463 4.2171 0.281773 4.41581 0.428286 4.56232C0.574799 4.70884 0.773512 4.79115 0.980713 4.79115H21.2932C21.5004 4.79115 21.6991 4.70884 21.8456 4.56232C21.9922 4.41581 22.0745 4.2171 22.0745 4.0099V2.4474C22.0745 2.2402 21.9922 2.04148 21.8456 1.89497C21.6991 1.74846 21.5004 1.66615 21.2932 1.66615Z" fill="url(#paint0_linear)"/>
<defs>
<linearGradient id="paint0_linear" x1="22.0745" y1="25.1036" x2="-3.51532" y2="20.426" gradientUnits="userSpaceOnUse">
<stop stop-color="#C73C3C"/>
<stop offset="1" stop-color="#FF6F6F"/>
</linearGradient>
</defs>
</svg>
