<svg width="25" height="28" viewBox="0 0 25 28" fill="none" xmlns="http://www.w3.org/2000/svg">
<path fill-rule="evenodd" clip-rule="evenodd" d="M21.5535 12.1348C20.846 12.1344 20.1583 12.3702 19.5985 12.8053C19.0387 13.2403 18.6385 13.85 18.4606 14.5385C18.2827 15.2271 18.3373 15.9555 18.6158 16.6095C18.8943 17.2634 19.3808 17.8059 19.9991 18.1517V19.1958C19.9991 20.5315 19.4714 21.8124 18.5321 22.7568C17.5928 23.7013 16.3188 24.2319 14.9904 24.2319C13.6619 24.2319 12.3879 23.7013 11.4486 22.7568C10.5093 21.8124 9.98157 20.5315 9.98157 19.1958V15.0972C11.6813 14.7366 13.2064 13.8 14.3014 12.4441C15.3965 11.0881 15.9951 9.39519 15.9972 7.64854V3.7992C15.9967 3.09339 15.7177 2.4166 15.2214 1.91745C14.7251 1.41829 14.052 1.13757 13.35 1.13692H12.6466C12.5365 0.77988 12.3027 0.474362 11.9877 0.275821C11.6727 0.0772807 11.2974 -0.00112173 10.9298 0.0548458C10.5622 0.110813 10.2268 0.297441 9.98435 0.580852C9.74194 0.864262 9.60863 1.22567 9.60862 1.59947V3.7992C9.60863 4.173 9.74194 4.5344 9.98435 4.81781C10.2268 5.10122 10.5622 5.28785 10.9298 5.34382C11.2974 5.39979 11.6727 5.32138 11.9877 5.12284C12.3027 4.9243 12.5365 4.61878 12.6466 4.26175H12.89V7.64854C12.89 8.83838 12.4199 9.97948 11.5831 10.8208C10.7463 11.6622 9.61138 12.1348 8.42798 12.1348C7.24458 12.1348 6.10965 11.6622 5.27286 10.8208C4.43607 9.97948 3.96596 8.83838 3.96596 7.64854V4.26175H4.20864C4.31883 4.61877 4.55266 4.92426 4.8677 5.12277C5.18274 5.32129 5.55812 5.39968 5.92573 5.34372C6.29334 5.28776 6.62882 5.10117 6.8713 4.81779C7.11378 4.53441 7.2472 4.17302 7.24734 3.7992V1.59947C7.2472 1.22564 7.11378 0.864259 6.8713 0.580879C6.62882 0.297499 6.29334 0.110901 5.92573 0.054944C5.55812 -0.00101348 5.18274 0.0773758 4.8677 0.27589C4.55266 0.474404 4.31883 0.779889 4.20864 1.13692H3.50591C2.80383 1.13751 2.13068 1.41819 1.63423 1.91734C1.13779 2.41648 0.858624 3.0933 0.858032 3.7992V7.64854C0.860054 9.3952 1.45869 11.0882 2.55375 12.4441C3.64881 13.8 5.17385 14.7367 6.87364 15.0972V19.1958C6.87364 21.3602 7.72879 23.436 9.25097 24.9664C10.7732 26.4969 12.8377 27.3567 14.9904 27.3567C17.143 27.3567 19.2076 26.4969 20.7297 24.9664C22.2519 23.436 23.1071 21.3602 23.1071 19.1958V18.1517C23.7253 17.8059 24.2119 17.2635 24.4904 16.6096C24.7688 15.9557 24.8235 15.2274 24.6457 14.5389C24.4679 13.8504 24.0678 13.2407 23.5081 12.8056C22.9485 12.3705 22.261 12.1346 21.5535 12.1348ZM7.33369 14.7118H7.33443L7.33369 14.7148V14.7118Z" fill="#002341"/>
</svg>
