<svg width="24" height="24" viewBox="0 0 24 24" fill="none" xmlns="http://www.w3.org/2000/svg">
<path fill-rule="evenodd" clip-rule="evenodd" d="M9.20498 0.423401C8.10042 0.423401 7.20498 1.31883 7.20498 2.4234V6.9176H2.71075C1.60618 6.9176 0.710754 7.81303 0.710754 8.9176V15.0825C0.710754 16.1871 1.60619 17.0825 2.71076 17.0825H7.20498V21.5768C7.20498 22.6814 8.10042 23.5768 9.20499 23.5768H15.3699C16.4745 23.5768 17.3699 22.6814 17.3699 21.5768V17.0825H21.8642C22.9687 17.0825 23.8642 16.1871 23.8642 15.0825V8.9176C23.8642 7.81303 22.9687 6.9176 21.8642 6.9176H17.3699V2.4234C17.3699 1.31883 16.4745 0.423401 15.3699 0.423401H9.20498Z" fill="#002341"/>
</svg>
