<svg width="41" height="41" viewBox="0 0 41 41" fill="none" xmlns="http://www.w3.org/2000/svg">
<rect x="0.117676" y="0.601013" width="40.1008" height="40.1008" rx="9" fill="white"/>
<path fill-rule="evenodd" clip-rule="evenodd" d="M29.807 8.71291C28.6354 7.54133 26.7359 7.54134 25.5644 8.71291L20.168 14.1093L14.7716 8.71293C13.6001 7.54136 11.7006 7.54136 10.529 8.71293L8.31033 10.9316C7.13876 12.1031 7.13876 14.0026 8.31034 15.1742L13.7067 20.5706L8.31032 25.9669C7.13875 27.1385 7.13875 29.038 8.31032 30.2096L10.529 32.4282C11.7005 33.5998 13.6 33.5998 14.7716 32.4282L20.168 27.0319L25.5644 32.4283C26.736 33.5998 28.6354 33.5998 29.807 32.4283L32.0257 30.2096C33.1972 29.038 33.1972 27.1385 32.0257 25.967L26.6293 20.5706L32.0257 15.1742C33.1972 14.0026 33.1972 12.1031 32.0256 10.9316L29.807 8.71291Z" fill="#7DCAB2"/>
</svg>
