<svg width="41" height="41" viewBox="0 0 41 41" fill="none" xmlns="http://www.w3.org/2000/svg">
<rect x="6.0647" y="7.83423" width="29.4666" height="25.4885" fill="white"/>
<path fill-rule="evenodd" clip-rule="evenodd" d="M9.55737 0.601013C4.58681 0.601013 0.557373 4.63044 0.557373 9.60101V31.7018C0.557373 36.6723 4.5868 40.7018 9.55737 40.7018H31.6581C36.6287 40.7018 40.6581 36.6724 40.6581 31.7018V9.60101C40.6581 4.63045 36.6287 0.601013 31.6581 0.601013H9.55737ZM10.509 9.04938C9.08002 9.04938 7.92163 10.2078 7.92163 11.6367C7.92163 13.0657 9.08002 14.2241 10.509 14.2241H30.7068C32.1357 14.2241 33.2941 13.0657 33.2941 11.6367C33.2941 10.2078 32.1357 9.04938 30.7068 9.04938H10.509ZM7.92163 20.6514C7.92163 19.2225 9.08002 18.0641 10.509 18.0641H30.7068C32.1357 18.0641 33.2941 19.2225 33.2941 20.6514C33.2941 22.0804 32.1357 23.2388 30.7068 23.2388H10.509C9.08002 23.2388 7.92163 22.0804 7.92163 20.6514ZM10.509 27.0788C9.08002 27.0788 7.92163 28.2372 7.92163 29.6661C7.92163 31.0951 9.08002 32.2535 10.509 32.2535H30.7068C32.1357 32.2535 33.2941 31.0951 33.2941 29.6661C33.2941 28.2372 32.1357 27.0788 30.7068 27.0788H10.509Z" fill="url(#paint0_linear)"/>
<defs>
<linearGradient id="paint0_linear" x1="40.6582" y1="40.7018" x2="-5.79272" y2="30.9979" gradientUnits="userSpaceOnUse">
<stop stop-color="#00A473"/>
<stop offset="1" stop-color="#24E97E"/>
</linearGradient>
</defs>
</svg>
