<svg width="29" height="30" viewBox="0 0 29 30" fill="none" xmlns="http://www.w3.org/2000/svg">
<path d="M21.7105 29.123H21.1161C19.969 29.123 19.0358 28.1898 19.0358 27.0427V24.3681H16.3612C15.214 24.3681 14.2809 23.4349 14.2809 22.2878V21.6934C14.2809 20.5463 15.214 19.6131 16.3612 19.6131H19.0358V16.9385C19.0358 15.7914 19.969 14.8582 21.1161 14.8582H21.7105C22.8576 14.8582 23.7907 15.7914 23.7907 16.9385V19.6131H26.4654C27.6125 19.6131 28.5457 20.5463 28.5457 21.6934V22.2878C28.5457 23.4349 27.6125 24.3681 26.4654 24.3681H23.7907V27.0427C23.7907 28.1898 22.8576 29.123 21.7105 29.123Z" fill="url(#paint0_linear)"/>
<path d="M10.7147 12.4807C13.9973 12.4807 16.6583 9.81964 16.6583 6.53705C16.6583 3.25445 13.9973 0.593384 10.7147 0.593384C7.43206 0.593384 4.771 3.25445 4.771 6.53705C4.771 9.81964 7.43206 12.4807 10.7147 12.4807Z" fill="url(#paint1_linear)"/>
<path d="M11.9034 22.2878V21.6934C11.9034 19.2351 13.9029 17.2357 16.3612 17.2357H16.6584V16.9385C16.6584 16.2823 16.8093 15.6642 17.0649 15.1019C16.5538 14.9593 16.026 14.8582 15.4696 14.8582H5.95977C2.67768 14.8582 0.0161133 17.5198 0.0161133 20.8019V24.6653C0.0161133 25.1574 0.415527 25.5568 0.907662 25.5568H13.3537C12.4681 24.7413 11.9034 23.5835 11.9034 22.2878Z" fill="url(#paint2_linear)"/>
<defs>
<linearGradient id="paint0_linear" x1="28.5457" y1="29.123" x2="12.022" y2="25.6711" gradientUnits="userSpaceOnUse">
<stop stop-color="#00A473"/>
<stop offset="1" stop-color="#24E97E"/>
</linearGradient>
<linearGradient id="paint1_linear" x1="16.6583" y1="12.4807" x2="2.8886" y2="9.60413" gradientUnits="userSpaceOnUse">
<stop stop-color="#00A473"/>
<stop offset="1" stop-color="#24E97E"/>
</linearGradient>
<linearGradient id="paint2_linear" x1="17.0649" y1="25.5568" x2="-1.48923" y2="19.3801" gradientUnits="userSpaceOnUse">
<stop stop-color="#00A473"/>
<stop offset="1" stop-color="#24E97E"/>
</linearGradient>
</defs>
</svg>
