<svg width="29" height="30" viewBox="0 0 29 30" fill="none" xmlns="http://www.w3.org/2000/svg">
<path d="M21.7105 29.1712H21.1161C19.969 29.1712 19.0358 28.2381 19.0358 27.0909V24.4163H16.3612C15.214 24.4163 14.2809 23.4831 14.2809 22.336V21.7416C14.2809 20.5945 15.214 19.6614 16.3612 19.6614H19.0358V16.9867C19.0358 15.8396 19.969 14.9064 21.1161 14.9064H21.7105C22.8576 14.9064 23.7907 15.8396 23.7907 16.9867V19.6614H26.4654C27.6125 19.6614 28.5457 20.5945 28.5457 21.7416V22.336C28.5457 23.4831 27.6125 24.4163 26.4654 24.4163H23.7907V27.0909C23.7907 28.2381 22.8576 29.1712 21.7105 29.1712Z" fill="white"/>
<path d="M10.7147 12.5289C13.9973 12.5289 16.6583 9.86786 16.6583 6.58526C16.6583 3.30267 13.9973 0.641602 10.7147 0.641602C7.43206 0.641602 4.771 3.30267 4.771 6.58526C4.771 9.86786 7.43206 12.5289 10.7147 12.5289Z" fill="white"/>
<path d="M11.9034 22.336V21.7416C11.9034 19.2833 13.9029 17.2839 16.3612 17.2839H16.6584V16.9867C16.6584 16.3305 16.8093 15.7124 17.0649 15.1501C16.5538 15.0075 16.026 14.9064 15.4696 14.9064H5.95977C2.67768 14.9064 0.0161133 17.568 0.0161133 20.8501V24.7135C0.0161133 25.2056 0.415527 25.605 0.907662 25.605H13.3537C12.4681 24.7896 11.9034 23.6317 11.9034 22.336Z" fill="white"/>
</svg>
