<svg width="29" height="27" viewBox="0 0 29 27" fill="none" xmlns="http://www.w3.org/2000/svg">
<path d="M28.3557 9.95215L15.2796 0.44233C14.8041 0.0857108 14.3286 0.0857108 13.8531 0.44233L0.777034 9.95215C-0.17397 10.5465 0.420414 12.0919 1.49027 12.0919H3.86776V25.1679C3.86776 25.8812 4.34323 26.3567 5.05647 26.3567H24.0762C24.7894 26.3567 25.2649 25.8812 25.2649 25.1679V12.0919H27.6424C28.7123 12.0919 29.3066 10.5465 28.3557 9.95215ZM14.5663 23.9792C10.6435 23.9792 7.43395 20.7697 7.43395 16.8468C7.43395 12.924 10.6435 9.71444 14.5663 9.71444C18.4892 9.71444 21.6987 12.924 21.6987 16.8468C21.6987 20.7697 18.4892 23.9792 14.5663 23.9792Z" fill="#002341"/>
<path d="M17.3494 15.0638C16.7972 15.0638 16.3494 14.616 16.3494 14.0638V12.4976C16.3494 11.9453 15.9017 11.4976 15.3494 11.4976H13.7832C13.231 11.4976 12.7832 11.9453 12.7832 12.4976V14.0638C12.7832 14.616 12.3355 15.0638 11.7832 15.0638H10.217C9.66476 15.0638 9.21704 15.5115 9.21704 16.0638V17.63C9.21704 18.1822 9.66476 18.63 10.217 18.63H11.7832C12.3355 18.63 12.7832 19.0777 12.7832 19.63V21.1961C12.7832 21.7484 13.231 22.1961 13.7832 22.1961H15.3494C15.9017 22.1961 16.3494 21.7484 16.3494 21.1961V19.63C16.3494 19.0777 16.7971 18.63 17.3494 18.63H18.9156C19.4679 18.63 19.9156 18.1822 19.9156 17.63V16.0638C19.9156 15.5115 19.4679 15.0638 18.9156 15.0638H17.3494Z" fill="#002341"/>
</svg>
