<svg width="29" height="27" viewBox="0 0 29 27" fill="none" xmlns="http://www.w3.org/2000/svg">
<path d="M28.3557 10.2005L15.2796 0.690683C14.8041 0.334063 14.3286 0.334063 13.8531 0.690683L0.777034 10.2005C-0.17397 10.7949 0.420414 12.3402 1.49027 12.3402H3.86776V25.4163C3.86776 26.1295 4.34323 26.605 5.05647 26.605H24.0762C24.7894 26.605 25.2649 26.1295 25.2649 25.4163V12.3402H27.6424C28.7123 12.3402 29.3066 10.7949 28.3557 10.2005ZM14.5663 24.2276C10.6435 24.2276 7.43395 21.018 7.43395 17.0952C7.43395 13.1724 10.6435 9.96279 14.5663 9.96279C18.4892 9.96279 21.6987 13.1724 21.6987 17.0952C21.6987 21.018 18.4892 24.2276 14.5663 24.2276Z" fill="white"/>
<path d="M17.3494 15.3121C16.7972 15.3121 16.3494 14.8644 16.3494 14.3121V12.7459C16.3494 12.1936 15.9017 11.7459 15.3494 11.7459H13.7832C13.231 11.7459 12.7832 12.1936 12.7832 12.7459V14.3121C12.7832 14.8644 12.3355 15.3121 11.7832 15.3121H10.217C9.66476 15.3121 9.21704 15.7598 9.21704 16.3121V17.8783C9.21704 18.4306 9.66476 18.8783 10.217 18.8783H11.7832C12.3355 18.8783 12.7832 19.326 12.7832 19.8783V21.4445C12.7832 21.9968 13.231 22.4445 13.7832 22.4445H15.3494C15.9017 22.4445 16.3494 21.9968 16.3494 21.4445V19.8783C16.3494 19.326 16.7971 18.8783 17.3494 18.8783H18.9156C19.4679 18.8783 19.9156 18.4306 19.9156 17.8783V16.3121C19.9156 15.7598 19.4679 15.3121 18.9156 15.3121H17.3494Z" fill="white"/>
</svg>
