<svg width="29" height="27" viewBox="0 0 29 27" fill="none" xmlns="http://www.w3.org/2000/svg">
<path d="M28.3557 10.1523L15.2796 0.642465C14.8041 0.285845 14.3286 0.285845 13.8531 0.642465L0.777034 10.1523C-0.17397 10.7467 0.420414 12.292 1.49027 12.292H3.86776V25.3681C3.86776 26.0813 4.34323 26.5568 5.05647 26.5568H24.0762C24.7894 26.5568 25.2649 26.0813 25.2649 25.3681V12.292H27.6424C28.7123 12.292 29.3066 10.7467 28.3557 10.1523ZM14.5663 24.1794C10.6435 24.1794 7.43395 20.9698 7.43395 17.047C7.43395 13.1242 10.6435 9.91458 14.5663 9.91458C18.4892 9.91458 21.6987 13.1242 21.6987 17.047C21.6987 20.9698 18.4892 24.1794 14.5663 24.1794Z" fill="url(#paint0_linear)"/>
<path d="M17.3494 15.2639C16.7972 15.2639 16.3494 14.8162 16.3494 14.2639V12.6977C16.3494 12.1454 15.9017 11.6977 15.3494 11.6977H13.7832C13.231 11.6977 12.7832 12.1454 12.7832 12.6977V14.2639C12.7832 14.8162 12.3355 15.2639 11.7832 15.2639H10.217C9.66476 15.2639 9.21704 15.7116 9.21704 16.2639V17.8301C9.21704 18.3824 9.66476 18.8301 10.217 18.8301H11.7832C12.3355 18.8301 12.7832 19.2778 12.7832 19.8301V21.3963C12.7832 21.9486 13.231 22.3963 13.7832 22.3963H15.3494C15.9017 22.3963 16.3494 21.9486 16.3494 21.3963V19.8301C16.3494 19.2778 16.7971 18.8301 17.3494 18.8301H18.9156C19.4679 18.8301 19.9156 18.3824 19.9156 17.8301V16.2639C19.9156 15.7116 19.4679 15.2639 18.9156 15.2639H17.3494Z" fill="url(#paint1_linear)"/>
<defs>
<linearGradient id="paint0_linear" x1="28.8321" y1="26.5568" x2="-3.96035" y2="19.0914" gradientUnits="userSpaceOnUse">
<stop stop-color="#00A473"/>
<stop offset="1" stop-color="#24E97E"/>
</linearGradient>
<linearGradient id="paint1_linear" x1="19.9156" y1="22.3963" x2="7.52288" y2="19.8074" gradientUnits="userSpaceOnUse">
<stop stop-color="#00A473"/>
<stop offset="1" stop-color="#24E97E"/>
</linearGradient>
</defs>
</svg>
