<svg width="24" height="25" viewBox="0 0 24 25" fill="none" xmlns="http://www.w3.org/2000/svg">
<path d="M21.8486 1.91516C19.4833 -0.551636 15.6359 -0.551636 13.2706 1.91516L8.93267 6.44166C8.56199 6.82846 8.56199 7.43867 8.93267 7.82547L13.2885 12.3707C13.6575 12.7557 14.26 12.776 14.7056 12.483C15.731 11.8085 16.9336 11.407 18.2335 11.407C18.9134 11.407 19.5695 11.5138 20.1884 11.7108C20.6063 11.8438 21.0745 11.7488 21.3637 11.4191L21.8486 10.8662C24.2133 8.39872 24.2133 4.38336 21.8486 1.91516Z" fill="white"/>
<path d="M12.5178 14.7709C12.7724 14.347 12.7494 13.797 12.4073 13.44L8.03892 8.88173C7.64511 8.4708 6.98822 8.47097 6.59461 8.88209L2.42198 13.2404C0.0573378 15.7079 0.0573378 19.7233 2.42198 22.1914C4.78725 24.6581 8.6796 24.7051 11.045 22.2383L11.5893 21.6675C11.8617 21.3819 11.9346 20.9645 11.8179 20.5874C11.6084 19.91 11.4942 19.1885 11.4942 18.4393C11.4943 17.0883 11.8766 15.8385 12.5178 14.7709Z" fill="white"/>
<path d="M12.8421 18.4393C12.8421 20.8928 14.3529 22.9602 16.4539 23.7239C17.0217 23.9303 17.5596 23.458 17.5596 22.8539V14.0247C17.5596 13.4206 17.0217 12.9483 16.4539 13.1547C14.3529 13.9184 12.8421 15.9857 12.8421 18.4393Z" fill="white"/>
<path d="M20.0131 13.1547C19.4453 12.9483 18.9074 13.4206 18.9074 14.0247V22.8539C18.9074 23.458 19.4453 23.9303 20.0131 23.7239C22.1141 22.9602 23.6249 20.8928 23.6249 18.4393C23.6249 15.9857 22.1141 13.9184 20.0131 13.1547Z" fill="white"/>
</svg>
