<svg width="24" height="25" viewBox="0 0 24 25" fill="none" xmlns="http://www.w3.org/2000/svg">
<path d="M21.4644 1.91516C19.0991 -0.551636 15.2517 -0.551636 12.8863 1.91516L8.54845 6.44166C8.17777 6.82846 8.17777 7.43867 8.54845 7.82547L12.9042 12.3707C13.2733 12.7557 13.8758 12.776 14.3214 12.483C15.3468 11.8085 16.5493 11.407 17.8493 11.407C18.5292 11.407 19.1853 11.5138 19.8042 11.7108C20.2221 11.8438 20.6902 11.7488 20.9794 11.4191L21.4644 10.8662C23.829 8.39872 23.829 4.38336 21.4644 1.91516Z" fill="url(#paint0_linear)"/>
<path d="M12.1336 14.7709C12.3882 14.347 12.3652 13.797 12.0231 13.44L7.6547 8.88173C7.26089 8.4708 6.604 8.47097 6.21039 8.88209L2.03776 13.2404C-0.326879 15.7079 -0.326879 19.7233 2.03776 22.1914C4.40304 24.6581 8.29538 24.7051 10.6607 22.2383L11.2051 21.6675C11.4775 21.3819 11.5503 20.9645 11.4337 20.5874C11.2241 19.91 11.11 19.1885 11.11 18.4393C11.11 17.0883 11.4924 15.8385 12.1336 14.7709Z" fill="url(#paint1_linear)"/>
<path d="M12.4579 18.4393C12.4579 20.8928 13.9686 22.9602 16.0697 23.7239C16.6375 23.9303 17.1754 23.458 17.1754 22.8539V14.0247C17.1754 13.4206 16.6375 12.9483 16.0697 13.1547C13.9686 13.9184 12.4579 15.9857 12.4579 18.4393Z" fill="url(#paint2_linear)"/>
<path d="M19.6289 13.1547C19.0611 12.9483 18.5232 13.4206 18.5232 14.0247V22.8539C18.5232 23.458 19.0611 23.9303 19.6289 23.7239C21.7299 22.9602 23.2407 20.8928 23.2407 18.4393C23.2407 15.9857 21.7299 13.9184 19.6289 13.1547Z" fill="url(#paint3_linear)"/>
<defs>
<linearGradient id="paint0_linear" x1="23.2379" y1="13.0583" x2="5.74403" y2="8.74013" gradientUnits="userSpaceOnUse">
<stop stop-color="#00A473"/>
<stop offset="1" stop-color="#24E97E"/>
</linearGradient>
<linearGradient id="paint1_linear" x1="12.6181" y1="24.0651" x2="-1.93488" y2="21.7084" gradientUnits="userSpaceOnUse">
<stop stop-color="#00A473"/>
<stop offset="1" stop-color="#24E97E"/>
</linearGradient>
<linearGradient id="paint2_linear" x1="17.1754" y1="23.9942" x2="11.5169" y2="23.4923" gradientUnits="userSpaceOnUse">
<stop stop-color="#00A473"/>
<stop offset="1" stop-color="#24E97E"/>
</linearGradient>
<linearGradient id="paint3_linear" x1="23.2407" y1="23.9942" x2="17.5822" y2="23.4923" gradientUnits="userSpaceOnUse">
<stop stop-color="#00A473"/>
<stop offset="1" stop-color="#24E97E"/>
</linearGradient>
</defs>
</svg>
