<svg width="40" height="32" viewBox="0 0 40 32" fill="none" xmlns="http://www.w3.org/2000/svg">
<path fill-rule="evenodd" clip-rule="evenodd" d="M35.7885 1.59038C34.6169 0.418803 32.7174 0.418804 31.5459 1.59038L15.0863 18.0499L8.52763 11.4913C7.35606 10.3197 5.45656 10.3197 4.28499 11.4913L1.2202 14.556C0.0486248 15.7276 0.0486255 17.6271 1.2202 18.7987L7.77887 25.3574L7.77317 25.3631L12.9593 30.5492C13.547 31.1369 14.3179 31.4298 15.0882 31.4278C15.8572 31.4288 16.6266 31.1359 17.2133 30.5492L20.2781 27.4844C20.3308 27.4317 20.3811 27.3776 20.429 27.3221L38.8533 8.89781C40.0249 7.72623 40.0249 5.82674 38.8533 4.65516L35.7885 1.59038Z" fill="url(#paint0_linear)"/>
<defs>
<linearGradient id="paint0_linear" x1="40.9746" y1="32.6705" x2="-6.36283" y2="20.1977" gradientUnits="userSpaceOnUse">
<stop stop-color="#00A473"/>
<stop offset="1" stop-color="#24E97E"/>
</linearGradient>
</defs>
</svg>
